<?xml version="1.0" encoding="UTF-8"?>
<svg xmlns="http://www.w3.org/2000/svg" viewBox="120 173 263 153" fill="#1381c3">
  <path d="M153.32,243.1h-14.98c-1.12,0-1.98-1-1.8-2.11l11.05-61.23c.14-.89.91-1.54,1.8-1.54h43.99c1.12,0,1.98,1,1.8,2.11l-1.82,11.59c-.14.89-.91,1.54-1.8,1.54h-25.92c-.9,0-1.67.66-1.81,1.55l-.91,5.9c-.17,1.11.69,2.11,1.81,2.11h18.47c1.12,0,1.98,1,1.8,2.11l-1.84,11.54c-.15.94-.96,1.63-1.91,1.63h-19.53c-.9,0-1.66.65-1.8,1.54l-4.79,21.71c-.14.89-.91,1.54-1.8,1.54Z"/>
  <path d="M204.12,178.22h14.41c1.12,0,1.98,1,1.8,2.11l-5.88,37.26c-1.1,6.83,4.2,10.27,9.89,10.27,6.02,0,12.14-3.73,13.19-10.27l5.97-37.83c.14-.89.91-1.54,1.8-1.54h14.46c1.12,0,1.98,1,1.8,2.11l-6.12,38.59c-2.77,17.39-18.87,25.13-33.68,25.13-16.01,0-28.33-8.36-25.66-25.13l6.2-39.17c.14-.89.91-1.54,1.8-1.54Z"/>
  <path d="M307.91,243.1h-45.29c-1.19,0-2.1-1.06-1.91-2.24l9.67-61.1c.14-.89.91-1.54,1.8-1.54h14.98c1.12,0,1.98,1,1.8,2.11l-7.19,45.34c-.19,1.18.72,2.24,1.91,2.24h25.99c1.19,0,2.1,1.06,1.91,2.24l-1.78,11.32c-.15.94-.96,1.64-1.91,1.64Z"/>
  <path d="M362.95,243.1h-45.29c-1.19,0-2.1-1.06-1.91-2.24l9.67-61.1c.14-.89.91-1.54,1.8-1.54h14.98c1.12,0,1.98,1,1.8,2.11l-7.19,45.34c-.19,1.18.72,2.24,1.91,2.24h25.99c1.19,0,2.1,1.06,1.91,2.24l-1.78,11.32c-.15.94-.96,1.64-1.91,1.64Z"/>
  <path d="M184.91,259.41l-3.8,12.77c-.35,1.19-1.72,1.73-2.81,1.14-4.02-2.18-10.36-4.25-17.23-4.53-5.53-.22-10.2.53-10.38,4.92-.1,2.39,2.61,3.15,5.56,4.22l9.88,3.54c9.59,3.38,15.16,8.6,14.81,17.31-.58,14.19-13.68,23.74-32.51,22.98-11.41-.46-19.97-3.55-24.6-5.96-.78-.4-1.14-1.31-.87-2.14l2.75-13.65c.34-1.08,1.58-1.59,2.57-1.04,4.16,2.3,13.05,5.79,22.07,6.16,5.23.21,9.37-.92,9.51-4.5.07-1.74-1.22-3.09-4.62-4.23l-9.65-3.18c-7.53-2.45-15.57-7.32-15.13-18.07.59-14.64,14.42-23.41,32.9-22.66,8.97.36,15.79,2.27,20.55,4.66.84.42,1.25,1.39.98,2.29Z"/>
  <path d="M207.48,304.28l-2.37,14.93c-.15.94-.96,1.63-1.91,1.63h-15.56c-1.19,0-2.1-1.06-1.91-2.24l10.1-63.81c.15-.94.96-1.63,1.91-1.63h31.89c14.7,0,22.33,9.02,22.33,20.74,0,15.25-11.62,28.76-30.16,28.76h-12.4c-.95,0-1.76.69-1.91,1.63ZM212.71,271.18l-2.03,12.87c-.19,1.18.72,2.24,1.91,2.24h8.45c6.48,0,10.87-3.49,10.87-9.92,0-4.69-2.99-6.83-8.22-6.83h-9.06c-.95,0-1.77.69-1.91,1.64Z"/>
  <path d="M269.63,320.84h-15.56c-1.19,0-2.1-1.06-1.91-2.24l10.1-63.81c.15-.94.96-1.63,1.91-1.63h15.57c1.19,0,2.1,1.06,1.91,2.24l-10.1,63.81c-.15.94-.96,1.63-1.91,1.63Z"/>
  <path d="M302.41,320.84h-15.02c-1.19,0-2.1-1.06-1.91-2.24l10.1-63.81c.15-.94.96-1.63,1.91-1.63h13.14c.66,0,1.27.33,1.63.89l21.14,32.78c.9,1.39,4.19,1.73,4.84-.69l4.98-31.34c.15-.94.96-1.63,1.91-1.63h15.18c1.11,0,1.95.99,1.78,2.09l-11.69,64.08c-.14.88-.89,1.52-1.78,1.52h-12.63c-.65,0-1.25-.32-1.61-.86l-21.65-32.28c-.98-1.46-3.25-.96-3.52.77l-4.89,30.73c-.15.94-.96,1.63-1.91,1.63Z"/>
  <path d="M365.77,178.22c6.1,0,11.34,4.68,11.34,10.77s-4.97,10.82-11.34,10.82-11.19-4.41-11.19-10.82c.02-6.22,5.01-10.77,11.19-10.77ZM365.77,197.05c4.74,0,8.58-3.22,8.58-8.06s-3.93-8.1-8.58-8.1-8.39,3.36-8.39,8.1,3.67,8.06,8.39,8.06ZM363.89,194.44h-2.86v-11.02h5.22c2.38,0,4.22,1.61,4.22,3.95,0,1.42-.81,2.71-1.98,3.4l2.82,3.67h-3.4l-2.36-3.13h-1.65v3.13ZM363.89,185.88v2.99h1.96c1.02,0,1.65-.67,1.65-1.5,0-.9-.67-1.48-1.65-1.48h-1.96Z"/>
</svg>
