<?xml version="1.0" encoding="UTF-8"?>
<svg id="Layer_1" data-name="Layer 1" xmlns="http://www.w3.org/2000/svg" viewBox="0 0 500 500">
  <defs>
    <style>
      .cls-1 {
        fill: #fff;
      }
    </style>
  </defs>
  <path class="cls-1" d="M54.21,278.32h-12.85c-.96,0-1.7-.86-1.55-1.81l9.48-52.51c.12-.76.78-1.32,1.55-1.32h37.72c.96,0,1.7.86,1.55,1.81l-1.56,9.94c-.12.76-.78,1.32-1.55,1.32h-22.23c-.77,0-1.43.56-1.55,1.33l-.78,5.06c-.15.95.59,1.81,1.55,1.81h15.84c.96,0,1.7.86,1.55,1.81l-1.58,9.9c-.13.81-.82,1.4-1.64,1.4h-16.75c-.77,0-1.43.56-1.55,1.32l-4.11,18.62c-.12.76-.78,1.32-1.55,1.32Z"/>
  <path class="cls-1" d="M95.24,222.68h12.36c.96,0,1.7.86,1.55,1.81l-5.04,31.95c-.94,5.86,3.61,8.81,8.48,8.81,5.16,0,10.41-3.2,11.31-8.81l5.12-32.44c.12-.76.78-1.32,1.55-1.32h12.4c.96,0,1.7.86,1.55,1.81l-5.25,33.1c-2.38,14.91-16.19,21.55-28.89,21.55-13.73,0-24.3-7.17-22-21.55l5.32-33.59c.12-.76.78-1.32,1.55-1.32Z"/>
  <path class="cls-1" d="M181.9,278.32h-38.84c-1.02,0-1.8-.91-1.64-1.92l8.29-52.4c.12-.76.78-1.32,1.55-1.32h12.85c.96,0,1.7.86,1.55,1.81l-6.17,38.88c-.16,1.01.62,1.92,1.64,1.92h22.29c1.02,0,1.8.91,1.64,1.92l-1.53,9.71c-.13.81-.82,1.4-1.64,1.4Z"/>
  <path class="cls-1" d="M229.11,278.32h-38.84c-1.02,0-1.8-.91-1.64-1.92l8.29-52.4c.12-.76.78-1.32,1.55-1.32h12.85c.96,0,1.7.86,1.55,1.81l-6.17,38.88c-.16,1.01.62,1.92,1.64,1.92h22.29c1.02,0,1.8.91,1.64,1.92l-1.53,9.71c-.13.81-.82,1.4-1.64,1.4Z"/>
  <path class="cls-1" d="M298.23,227.82l-3.12,10.49c-.29.98-1.41,1.42-2.31.93-3.3-1.8-8.51-3.5-14.16-3.72-4.54-.18-8.38.44-8.53,4.04-.08,1.96,2.15,2.59,4.57,3.46l8.12,2.91c7.88,2.78,12.46,7.06,12.17,14.23-.47,11.66-11.24,19.51-26.71,18.88-9.37-.38-16.41-2.92-20.21-4.9-.64-.33-.93-1.07-.72-1.76l2.26-11.22c.28-.89,1.3-1.3,2.11-.85,3.42,1.89,10.72,4.76,18.13,5.06,4.3.17,7.7-.75,7.82-3.7.06-1.43-1-2.54-3.79-3.47l-7.93-2.62c-6.19-2.01-12.79-6.01-12.43-14.85.49-12.03,11.85-19.24,27.03-18.62,7.37.3,12.97,1.87,16.88,3.83.69.35,1.02,1.14.8,1.88Z"/>
  <path class="cls-1" d="M313.6,264.69l-1.95,12.26c-.12.77-.79,1.34-1.57,1.34h-12.79c-.98,0-1.73-.87-1.57-1.84l8.3-52.43c.12-.77.79-1.34,1.57-1.34h26.2c12.08,0,18.35,7.41,18.35,17.04,0,12.53-9.54,23.63-24.78,23.63h-10.19c-.78,0-1.45.57-1.57,1.34ZM317.9,237.5l-1.67,10.58c-.15.97.59,1.84,1.57,1.84h6.94c5.32,0,8.93-2.87,8.93-8.15,0-3.85-2.46-5.61-6.76-5.61h-7.45c-.78,0-1.45.57-1.57,1.34Z"/>
  <path class="cls-1" d="M362.99,278.3h-12.79c-.98,0-1.73-.87-1.57-1.84l8.3-52.43c.12-.77.79-1.34,1.57-1.34h12.79c.98,0,1.73.87,1.57,1.84l-8.3,52.43c-.12.77-.79,1.34-1.57,1.34Z"/>
  <path class="cls-1" d="M383,278.3h-12.34c-.98,0-1.73-.87-1.57-1.84l8.3-52.43c.12-.77.79-1.34,1.57-1.34h10.8c.54,0,1.04.27,1.34.73l17.37,26.94c.74,1.14,3.44,1.42,3.98-.57l4.09-25.75c.12-.77.79-1.34,1.57-1.34h12.47c.91,0,1.61.81,1.46,1.71l-9.6,52.65c-.11.72-.73,1.25-1.46,1.25h-10.38c-.53,0-1.03-.26-1.32-.71l-17.79-26.52c-.81-1.2-2.67-.79-2.9.64l-4.02,25.25c-.12.77-.79,1.34-1.57,1.34Z"/>
  <path class="cls-1" d="M451.97,220.86c4.43,0,8.24,3.4,8.24,7.83s-3.61,7.86-8.24,7.86-8.13-3.2-8.13-7.86c.02-4.52,3.64-7.83,8.13-7.83ZM451.97,234.54c3.44,0,6.24-2.34,6.24-5.86s-2.85-5.89-6.24-5.89-6.1,2.44-6.1,5.89,2.67,5.86,6.1,5.86ZM450.6,232.65h-2.08v-8.01h3.79c1.73,0,3.06,1.17,3.06,2.87,0,1.03-.59,1.97-1.44,2.47l2.05,2.67h-2.47l-1.71-2.28h-1.2v2.28ZM450.6,226.43v2.17h1.43c.74,0,1.2-.49,1.2-1.09,0-.65-.49-1.08-1.2-1.08h-1.43Z"/>
</svg>